<?xml version="1.0" encoding="utf-8"?>
<!-- Svg Vector Icons : http://www.onlinewebfonts.com/icon -->
<!DOCTYPE svg PUBLIC "-//W3C//DTD SVG 1.1//EN" "http://www.w3.org/Graphics/SVG/1.1/DTD/svg11.dtd">
<svg version="1.1" xmlns="http://www.w3.org/2000/svg" xmlns:xlink="http://www.w3.org/1999/xlink" x="0px" y="0px" viewBox="0 0 1000 1000" enable-background="new 0 0 1000 1000" xml:space="preserve">
<metadata> Svg Vector Icons : http://www.onlinewebfonts.com/icon </metadata>
<g><g transform="translate(0.000000,511.000000) scale(0.100000,-0.100000)"><path style='fill:#ffffff' d="M6562.2,4090.7c-45.9-36.4-4360.4-5007.7-4670.6-5384.9c-151.3-181.9-373.4-505.6-553.4-808.1c-197.2-327.5-614.7-1170-681.7-1373c-69-208.7-80.4-358.1-28.7-407.9c51.7-51.7,206.8-28.7,377.2,53.6c120.7,61.3,467.3,275.8,515.1,319.8c9.6,7.7-9.6,55.5-40.2,107.2c-120.7,197.3-149.4,423.2-80.4,643.4c49.8,160.9,109.2,239.4,331.3,436.6c212.6,187.7,340.9,260.4,1143.2,649.2c605.1,293,932.6,471.1,1177.7,643.4c176.2,122.5-34.5-114.9,3065.8,3458.4c317.9,363.8,582.2,677.9,587.9,695.1c105.3,271.9-323.6,815.8-764.1,970.9C6799.7,4144.3,6629.2,4142.4,6562.2,4090.7z"/><path style="fill:#EFF1DB" d="M3955.9,1810c-817.7-195.3-1237.1-335.1-1742.6-580.2c-199.2-97.7-279.6-149.4-406-262.4C1309.4,521.2,606.6-398,277.3-1028C116.4-1340.1,89.6-1439.7,103-1671.4c26.8-406,137.9-555.3,419.4-555.3c176.2,1.9,262.3,47.9,465.3,254.7c199.1,204.9,340.9,384.9,861.7,1095.4c476.8,649.2,687.5,913.4,924.9,1162.4c149.4,157,1210.3,1369.2,1323.2,1514.7c23,28.7,21.1,32.6-19.2,30.6C4053.6,1829.1,3998.1,1821.5,3955.9,1810z"/><path style="fill:#EFF1DB" d="M5516.6,55.9c-478.7-553.4-919.2-1059-976.6-1120.3c-239.4-254.7-541.9-438.5-1579.8-951.7c-459.6-227.9-863.7-440.4-944.1-497.9c-141.7-99.6-243.2-218.3-285.3-331.3c-114.9-314.1,189.6-664.5,580.2-664.5c155.1,0,258.5,34.5,672.2,227.9c1003.4,467.2,1501.3,572.6,2447.3,518.9c486.4-26.8,1380.7-122.6,1551.1-164.7c36.4-9.6,67,90,427,1359.6l386.8,1367.3l-118.7,113c-67,63.2-216.4,203-331.3,314c-312.1,293-932.6,842.6-949.8,840.7C6391.8,1065.1,5995.4,611.2,5516.6,55.9z"/><path style="fill:#C8F4F9" d="M8199.5-191.2c-109.1-511.3-595.5-3019.9-589.8-3037.1c11.5-26.8,1216-465.3,1231.3-448.1c7.7,5.7,233.6,767.9,505.6,1692.8c271.9,924.9,507.5,1727.3,522.8,1782.8l30.7,99.6h-840.7h-838.8L8199.5-191.2z"/></g></g>
</svg>